<?xml version="1.0" encoding="iso-8859-1"?>
<!-- Generator: Adobe Illustrator 19.0.0, SVG Export Plug-In . SVG Version: 6.00 Build 0)  -->
<svg version="1.1" id="Capa_1" xmlns="http://www.w3.org/2000/svg" xmlns:xlink="http://www.w3.org/1999/xlink" x="0px" y="0px"
	 viewBox="0 0 512 512" style="enable-background:new 0 0 512 512;" fill="white" xml:space="preserve">
<g>
	<g>
		<path d="M384,281.6c-43.52,0-76.8,33.28-76.8,76.8c0,33.28,20.48,61.44,51.2,71.68V512l28.16-25.6L409.6,512v-81.92
			c30.72-10.24,51.2-38.4,51.2-71.68C460.8,314.88,424.96,281.6,384,281.6z"/>
	</g>
</g>
<g>
	<g>
		<path d="M409.6,0h-384C10.24,0,0,12.8,0,25.6v307.2c0,12.8,10.24,25.6,25.6,25.6H256c0-71.68,56.32-128,128-128
			c64,0,120.32,48.64,128,110.08c0-2.56,0-263.68,0-263.68L409.6,0z M204.8,307.2h-128c-15.36,0-25.6-10.24-25.6-25.6
			c0-15.36,10.24-25.6,25.6-25.6h128c15.36,0,25.6,10.24,25.6,25.6C230.4,296.96,217.6,307.2,204.8,307.2z M358.4,204.8H76.8
			c-15.36,0-25.6-10.24-25.6-25.6s10.24-25.6,25.6-25.6h281.6c15.36,0,25.6,10.24,25.6,25.6S371.2,204.8,358.4,204.8z M358.4,102.4
			H76.8c-15.36,0-25.6-10.24-25.6-25.6s10.24-25.6,25.6-25.6h281.6c15.36,0,25.6,10.24,25.6,25.6S371.2,102.4,358.4,102.4z"/>
	</g>
</g>
<g>
</g>
<g>
</g>
<g>
</g>
<g>
</g>
<g>
</g>
<g>
</g>
<g>
</g>
<g>
</g>
<g>
</g>
<g>
</g>
<g>
</g>
<g>
</g>
<g>
</g>
<g>
</g>
<g>
</g>
</svg>
