<svg id="Ebene_1" data-name="Ebene 1" xmlns="http://www.w3.org/2000/svg" viewBox="0 0 223.48 221.74"><defs><style>.cls-1{fill:#231f20;}.cls-2,.cls-3{fill:none;stroke:#fff;stroke-miterlimit:2.61;}.cls-2{stroke-width:8.35px;}.cls-3{stroke-width:8.35px;}.cls-4,.cls-5{fill:#fff;}.cls-4{fill-rule:evenodd;}</style></defs><title>logo_monochrom2</title><rect class="cls-1" x="48.03" y="46.46" width="143.83" height="143.78"/><path class="cls-2" d="M448.82,216.3C429,255,462.27,317,432.88,337.91" transform="translate(-308 -187.28)"/><path class="cls-3" d="M519.46,284.14c-34.19,2.43-32.89,99.32-88.75,56.33" transform="translate(-308 -187.28)"/><path class="cls-2" d="M323.21,350C332,324,390.36,382.66,432.76,339.9m-69.05-84.22c57.53-19.33,40,100.34,71.67,85" transform="translate(-308 -187.28)"/><path class="cls-2" d="M481.71,245.63c-16.8,35.16,6.28,76.58-47.74,91.08" transform="translate(-308 -187.28)"/><path class="cls-2" d="M338.26,291.14c40.46,52.53,80.67,77.94,97.33,42.52" transform="translate(-308 -187.28)"/><path class="cls-2" d="M390.14,199.15c32.59,51.51,53.66,101.67,42.63,140" transform="translate(-308 -187.28)"/><path class="cls-4" d="M379.42,276.7c1.46,0,2.65,1.54,2.65,3.42s-1.19,3.43-2.65,3.43-2.65-1.54-2.65-3.43,1.19-3.42,2.65-3.42" transform="translate(-308 -187.28)"/><path class="cls-4" d="M385.45,278.65c1.46,0,2.65,1.54,2.65,3.43s-1.19,3.42-2.65,3.42-2.65-1.54-2.65-3.42,1.19-3.43,2.65-3.43" transform="translate(-308 -187.28)"/><path class="cls-4" d="M390.78,282.93c1.45,0,2.65,1.54,2.65,3.43s-1.2,3.42-2.65,3.42-2.65-1.54-2.65-3.42,1.19-3.43,2.65-3.43" transform="translate(-308 -187.28)"/><path class="cls-4" d="M393.31,290.37c1.46,0,2.65,1.53,2.65,3.42s-1.19,3.43-2.65,3.43-2.65-1.54-2.65-3.43,1.19-3.42,2.65-3.42" transform="translate(-308 -187.28)"/><path class="cls-4" d="M373.4,278.65c-1.46,0-2.65,1.54-2.65,3.43s1.19,3.42,2.65,3.42,2.65-1.54,2.65-3.42-1.19-3.43-2.65-3.43" transform="translate(-308 -187.28)"/><path class="cls-4" d="M368.08,282.93c-1.46,0-2.65,1.54-2.65,3.43s1.19,3.42,2.65,3.42,2.65-1.54,2.65-3.42-1.2-3.43-2.65-3.43" transform="translate(-308 -187.28)"/><path class="cls-4" d="M365.54,290.37c-1.46,0-2.65,1.53-2.65,3.42s1.19,3.43,2.65,3.43,2.65-1.54,2.65-3.43-1.19-3.42-2.65-3.42" transform="translate(-308 -187.28)"/><path class="cls-4" d="M379.42,311c1.46,0,2.65-1.54,2.65-3.42s-1.19-3.43-2.65-3.43-2.65,1.54-2.65,3.43S378,311,379.42,311" transform="translate(-308 -187.28)"/><path class="cls-4" d="M385.45,309.08c1.46,0,2.65-1.54,2.65-3.42s-1.19-3.43-2.65-3.43-2.65,1.54-2.65,3.43,1.19,3.42,2.65,3.42" transform="translate(-308 -187.28)"/><path class="cls-4" d="M390.78,304.8c1.45,0,2.65-1.54,2.65-3.43s-1.2-3.42-2.65-3.42-2.65,1.54-2.65,3.42,1.19,3.43,2.65,3.43" transform="translate(-308 -187.28)"/><path class="cls-4" d="M373.4,309.08c-1.46,0-2.65-1.54-2.65-3.42s1.19-3.43,2.65-3.43,2.65,1.54,2.65,3.43-1.19,3.42-2.65,3.42" transform="translate(-308 -187.28)"/><path class="cls-4" d="M368.08,304.8c-1.46,0-2.65-1.54-2.65-3.43s1.19-3.42,2.65-3.42,2.65,1.54,2.65,3.42-1.2,3.43-2.65,3.43" transform="translate(-308 -187.28)"/><rect class="cls-5" x="131.48" y="15.23" width="16.63" height="16.63"/><polyline class="cls-4" points="71.19 7.42 86.07 0 93.49 14.89 78.61 22.3 71.19 7.42"/><polyline class="cls-4" points="17.39 100.51 30.74 90.6 40.65 103.95 27.3 113.86 17.39 100.51"/><rect class="cls-5" x="160.99" y="54.27" width="16.63" height="16.63"/><rect class="cls-5" x="206.85" y="89.46" width="16.63" height="16.63"/><rect class="cls-5" x="53.71" y="58.31" width="16.63" height="16.63"/><polyline class="cls-4" points="11.12 153.09 23.33 164.21 12.21 176.42 0 165.3 11.12 153.09"/><polygon class="cls-5" points="42.51 221.25 42.51 216.62 28.71 216.62 28.71 193.99 23.16 193.99 23.16 221.25 42.51 221.25 42.51 221.25"/><path class="cls-5" d="M358.51,408.53V385.62h-4.63v22.91Zm8.75,0V393.59l9.23,14.94h4.64V385.62h-4.3v15.3l-9.37-15.3H363v22.91Zm23.45,0v-6.92l3.75-3.83,6.3,10.75h6l-9.09-14,8.62-8.92h-6.22l-9.34,10.17V385.62h-4.63v22.91Z" transform="translate(-308 -187.28)"/><path class="cls-5" d="M411.54,406.61c1.87,1.6,4.53,2.41,8,2.41a15.52,15.52,0,0,0,6-1,7.86,7.86,0,0,0,3.71-3.06,8.08,8.08,0,0,0,1.32-4.43,8.2,8.2,0,0,0-1.1-4.38,7.67,7.67,0,0,0-3-2.79,27,27,0,0,0-6-2q-4.05-1-5.1-1.84a2.09,2.09,0,0,1-.82-1.66,2,2,0,0,1,.88-1.71,6.33,6.33,0,0,1,3.78-1,5.65,5.65,0,0,1,3.52.92,4.75,4.75,0,0,1,1.53,3.05l5.55-.24a8,8,0,0,0-2.75-6.06q-2.61-2.26-7.79-2.27a13.74,13.74,0,0,0-5.41,1,7.45,7.45,0,0,0-3.43,2.78,7.22,7.22,0,0,0,1.34,9.46c1.2,1.08,3.29,2,6.26,2.72,2.32.58,3.8,1,4.45,1.2a4.62,4.62,0,0,1,2,1.19,2.47,2.47,0,0,1,.58,1.66,3.38,3.38,0,0,1-1.36,2.65,6.18,6.18,0,0,1-4,1.14,6,6,0,0,1-4-1.28,6.57,6.57,0,0,1-2-4l-5.4.52a10.49,10.49,0,0,0,3.33,7Z" transform="translate(-308 -187.28)"/><path class="cls-5" d="M439,408.53v-18l4.53,18H448l4.54-18v18h4.3V385.62h-6.94l-4.11,15.63-4.15-15.63h-6.93v22.91Zm33.91-22.91h-4.89l-8.93,22.91H464l1.89-5.2h9.16l2,5.2h5l-9.17-22.91Zm-5.6,13.85,3.1-8.5,3.15,8.5Zm21.86,9.06V399h.94a7.76,7.76,0,0,1,2.33.25,3.6,3.6,0,0,1,1.39,1,31.56,31.56,0,0,1,2.44,3.36l3.34,5h5.53l-2.8-4.47a26.12,26.12,0,0,0-2.63-3.72,10.57,10.57,0,0,0-2.47-1.92,7.27,7.27,0,0,0,4.53-2.12,6.12,6.12,0,0,0,1.51-4.26,6.6,6.6,0,0,0-1-3.61,5.22,5.22,0,0,0-2.66-2.19,16.71,16.71,0,0,0-5.34-.62h-9.73v22.91Zm0-19h3.61c1.88,0,3,0,3.38.08a2.81,2.81,0,0,1,1.74.89,2.78,2.78,0,0,1,.62,1.87,3,3,0,0,1-.47,1.72,2.5,2.5,0,0,1-1.3,1,17.57,17.57,0,0,1-4.16.28H489.2V389.5Zm28.25,19v-19h6.78v-3.88H506v3.88h6.8v19Z" transform="translate(-308 -187.28)"/></svg>