<?xml version="1.0" encoding="utf-8"?>
<svg
  xmlns="http://www.w3.org/2000/svg">
  <symbol id="bolt" viewBox="0 0 17 16">
    <g stroke="none" stroke-width="1">
      <path d="M14.289,0.023 L6.925,0 L2.984,8 L8,8 L3.666,15.916 L14.924,4.941 L10.35,4.941 L14.289,0.023 Z"/>
    </g>
  </symbol>
  <symbol id="house" viewBox="0 0 17 16">
    <g stroke="none" stroke-width="1">
      <g transform="translate(1.000000, 1.000000)">
        <path d="M15.794,7.77 L11.984,3.864 L11.9839997,1.01706251 L11.0159997,1.03906251 L11.016,2.767 L8.502,0.245 C8.224,-0.031 7.776,-0.031 7.499,0.245 L0.206,7.771 C-0.069,8.048 -0.068,8.498 0.206,8.773 C0.482,9.049 0.933,9.049 1.209,8.772 L8,1.982 L14.793,8.772 C14.931,8.91 15.111,8.98 15.293,8.98 C15.474,8.98 15.654,8.912 15.794,8.773 C16.068,8.496 16.068,8.045 15.794,7.77 L15.794,7.77 Z"/>
        <path d="M3.043,8.532 L3.043,14.222 C3.043,14.616 3.26102394,15.0078125 3.61002394,15.0078125 L5.88702394,15.0078125 L5.95099996,11.0147705 L10.0249632,11.0147705 L10.0230128,15.0078125 L12.3260496,15.0078125 C12.6750496,15.0078125 12.958,14.617 12.958,14.222 L12.958,8.531 L8,3.625 L3.043,8.532 L3.043,8.532 Z"/>
      </g>
    </g>
  </symbol>
  <symbol id="factory" viewBox="0 0 16 16">
    <g stroke="none" stroke-width="1">
      <g transform="translate(0.000000, 2.000000)">
        <g>
          <path d="M13,0 L13,7 L9,4 L9,7 L5,4 L5,7 L0,4 L0,13 L15,13 L15,0 L13,0 L13,0 Z M3,10 L1,10 L1,8 L3,8 L3,10 L3,10 Z M7,10 L5,10 L5,8 L7,8 L7,10 L7,10 Z M11,10 L9,10 L9,8 L11,8 L11,10 L11,10 Z"/>
        </g>
      </g>
    </g>
  </symbol>
  <symbol id="city" viewBox="0 0 17 16">
    <g stroke="none" stroke-width="1">
      <g transform="translate(1.000000, 0.000000)">
        <path d="M0,8 L0,16 L3,16 L3,8 L0,8 L0,8 Z M2,15 L0.979,15 L0.979,12.979 L2,12.979 L2,15 L2,15 Z M2.021,12 L0.98,12 L0.98,9.979 L2.021,9.979 L2.021,12 L2.021,12 Z"/>
        <path d="M9,5 L9,3 L8,3 L8,0 L7,0 L7,3 L6,3 L6,5 L4,5 L4,16 L11,16 L11,5 L9,5 L9,5 Z M6,15 L5,15 L5,13 L6,13 L6,15 L6,15 Z M6,12.042 L5,12.042 L5,10 L6,10 L6,12.042 L6,12.042 Z M6,9.042 L5,9.042 L5,7 L6,7 L6,9.042 L6,9.042 Z M8,15 L7,15 L7,13 L8,13 L8,15 L8,15 Z M8,12.042 L7,12.042 L7,10 L8,10 L8,12.042 L8,12.042 Z M8,9.042 L7,9.042 L7,7 L8,7 L8,9.042 L8,9.042 Z M10,15 L9,15 L9,13 L10,13 L10,15 L10,15 Z M10,12.042 L9,12.042 L9,10 L10,10 L10,12.042 L10,12.042 Z M10,9.042 L9,9.042 L9,7 L10,7 L10,9.042 L10,9.042 Z"/>
        <path d="M12,7 L12,16 L16,16 L16,11 L12,7 L12,7 Z M14.031,15.062 L13,15.062 L13,13.968 L14.031,13.968 L14.031,15.062 L14.031,15.062 Z M14.031,13.062 L13,13.062 L13,11.968 L14.031,11.968 L14.031,13.062 L14.031,13.062 Z M14.031,11.062 L13,11.062 L13,9.968 L14.031,9.968 L14.031,11.062 L14.031,11.062 Z"/>
      </g>
    </g>
  </symbol>
  <symbol id="certificate" viewBox="0 0 512 512">
    <g>
      <g>
        <path d="M384,281.6c-43.52,0-76.8,33.28-76.8,76.8c0,33.28,20.48,61.44,51.2,71.68V512l28.16-25.6L409.6,512v-81.92 c30.72-10.24,51.2-38.4,51.2-71.68C460.8,314.88,424.96,281.6,384,281.6z"/>
      </g>
    </g>
    <g>
      <g>
        <path d="M409.6,0h-384C10.24,0,0,12.8,0,25.6v307.2c0,12.8,10.24,25.6,25.6,25.6H256c0-71.68,56.32-128,128-128 c64,0,120.32,48.64,128,110.08c0-2.56,0-263.68,0-263.68L409.6,0z M204.8,307.2h-128c-15.36,0-25.6-10.24-25.6-25.6 c0-15.36,10.24-25.6,25.6-25.6h128c15.36,0,25.6,10.24,25.6,25.6C230.4,296.96,217.6,307.2,204.8,307.2z M358.4,204.8H76.8 c-15.36,0-25.6-10.24-25.6-25.6s10.24-25.6,25.6-25.6h281.6c15.36,0,25.6,10.24,25.6,25.6S371.2,204.8,358.4,204.8z M358.4,102.4 H76.8c-15.36,0-25.6-10.24-25.6-25.6s10.24-25.6,25.6-25.6h281.6c15.36,0,25.6,10.24,25.6,25.6S371.2,102.4,358.4,102.4z"/>
      </g>
    </g>
  </symbol>
  <symbol id="check" viewBox="0 0 474.8 474.801">
    <g>
      <g>
        <path d="M396.283,257.097c-1.14-0.575-2.282-0.862-3.433-0.862c-2.478,0-4.661,0.951-6.563,2.857l-18.274,18.271 c-1.708,1.715-2.566,3.806-2.566,6.283v72.513c0,12.565-4.463,23.314-13.415,32.264c-8.945,8.945-19.701,13.418-32.264,13.418 H82.226c-12.564,0-23.319-4.473-32.264-13.418c-8.947-8.949-13.418-19.698-13.418-32.264V118.622 c0-12.562,4.471-23.316,13.418-32.264c8.945-8.946,19.7-13.418,32.264-13.418H319.77c4.188,0,8.47,0.571,12.847,1.714 c1.143,0.378,1.999,0.571,2.563,0.571c2.478,0,4.668-0.949,6.57-2.852l13.99-13.99c2.282-2.281,3.142-5.043,2.566-8.276 c-0.571-3.046-2.286-5.236-5.141-6.567c-10.272-4.752-21.412-7.139-33.403-7.139H82.226c-22.65,0-42.018,8.042-58.102,24.126 C8.042,76.613,0,95.978,0,118.629v237.543c0,22.647,8.042,42.014,24.125,58.098c16.084,16.088,35.452,24.13,58.102,24.13h237.541 c22.647,0,42.017-8.042,58.101-24.13c16.085-16.084,24.134-35.45,24.134-58.098v-90.797 C402.001,261.381,400.088,258.623,396.283,257.097z"/>
        <path d="M467.95,93.216l-31.409-31.409c-4.568-4.567-9.996-6.851-16.279-6.851c-6.275,0-11.707,2.284-16.271,6.851 L219.265,246.532l-75.084-75.089c-4.569-4.57-9.995-6.851-16.274-6.851c-6.28,0-11.704,2.281-16.274,6.851l-31.405,31.405 c-4.568,4.568-6.854,9.994-6.854,16.277c0,6.28,2.286,11.704,6.854,16.274l122.767,122.767c4.569,4.571,9.995,6.851,16.274,6.851 c6.279,0,11.704-2.279,16.274-6.851l232.404-232.403c4.565-4.567,6.854-9.994,6.854-16.274S472.518,97.783,467.95,93.216z"/>
      </g>
    </g>
  </symbol>
  <symbol id="cogs" viewBox="0 0 593.65 593.65">
    <g>
      <g>
        <path d="M566.104,323.594h-21.531c-5.826,0-12.619-5.272-14.834-11.515c-2.053-5.786-4.465-11.545-7.16-17.121 c-2.871-5.93-1.814-14.418,2.305-18.537l15.326-15.328c10.738-10.737,10.738-28.21,0-38.948l-24.877-24.877 c-5.203-5.202-12.117-8.066-19.475-8.066c-7.355,0-14.271,2.864-19.473,8.066l-15.328,15.328 c-2.461,2.46-6.559,3.929-10.957,3.929c-2.754,0-5.375-0.563-7.574-1.628c-5.578-2.699-11.346-5.113-17.145-7.176 c-6.24-2.215-11.512-9.008-11.512-14.832v-21.533c0-15.184-12.354-27.54-27.541-27.54h-35.189 c-15.188,0-27.541,12.356-27.541,27.54v21.533c0,5.826-5.271,12.62-11.512,14.832c-5.791,2.057-11.557,4.465-17.129,7.158 c-2.163,1.046-4.847,1.622-7.558,1.622c-4.416,0-8.525-1.472-10.992-3.938l-15.303-15.297c-5.202-5.202-12.118-8.066-19.477-8.066 c-7.356,0-14.272,2.864-19.474,8.063l-24.902,24.887c-5.205,5.199-8.069,12.114-8.072,19.471c0,7.356,2.864,14.272,8.066,19.474 l15.328,15.328c4.122,4.122,5.181,12.616,2.311,18.55c-2.69,5.566-5.098,11.322-7.151,17.111 c-2.215,6.239-9.005,11.512-14.832,11.512h-21.53c-15.187,0-27.54,12.356-27.54,27.54v35.19c0,15.184,12.353,27.54,27.54,27.54 h21.53c5.827,0,12.62,5.269,14.835,11.509c2.05,5.773,4.458,11.532,7.157,17.111c2.868,5.93,1.806,14.425-2.319,18.55 l-15.328,15.327c-10.737,10.737-10.737,28.21,0,38.947l24.912,24.915c5.202,5.202,12.118,8.066,19.474,8.066 c7.356,0,14.272-2.864,19.474-8.066l15.328-15.327c2.466-2.467,6.573-3.938,10.985-3.938c2.751,0,5.364,0.56,7.558,1.622 c5.576,2.695,11.333,5.104,17.115,7.157c6.238,2.215,11.512,9.008,11.512,14.835v21.533c0,15.184,12.354,27.539,27.539,27.539 h35.191c15.186,0,27.539-12.355,27.539-27.539v-21.533c0-5.827,5.273-12.62,11.512-14.832c5.793-2.057,11.559-4.465,17.131-7.157 c2.162-1.047,4.846-1.622,7.557-1.622c4.416,0,8.523,1.472,10.99,3.938l15.326,15.327c5.203,5.202,12.115,8.066,19.471,8.066 c7.359,0,14.275-2.867,19.477-8.072l24.889-24.902c10.73-10.74,10.73-28.213-0.004-38.951l-15.314-15.321 c-4.119-4.118-5.176-12.613-2.309-18.547c2.693-5.569,5.098-11.331,7.154-17.12c2.213-6.239,9.004-11.509,14.83-11.509h21.529 c15.188,0,27.541-12.356,27.541-27.54v-35.19C593.643,335.948,581.287,323.594,566.104,323.594z M449.441,368.729 c0,44.502-36.207,80.708-80.709,80.708c-44.5,0-80.707-36.206-80.707-80.708c0-44.501,36.207-80.707,80.707-80.707 C413.234,288.022,449.441,324.225,449.441,368.729z"/>
        <path d="M201.868,146.904c0.521-1.466,2.262-2.702,3.082-2.702h10.784c10.123,0,18.36-8.234,18.36-18.36v-17.595 c0-10.125-8.237-18.36-18.36-18.36h-10.781c-0.82,0-2.561-1.236-3.081-2.702c-1.083-3.051-2.353-6.089-3.776-9.024 c-0.664-1.374-0.312-3.446,0.263-4.021l7.666-7.665c7.157-7.161,7.157-18.807,0-25.964l-12.439-12.439 c-3.467-3.467-8.079-5.376-12.983-5.376c-4.905,0-9.517,1.913-12.984,5.379l-7.662,7.663c-0.239,0.239-1.059,0.621-2.237,0.621 c-0.67,0-1.319-0.128-1.784-0.355c-2.94-1.423-5.976-2.693-9.024-3.773c-1.469-0.52-2.705-2.265-2.705-3.082V18.366 c0-10.126-8.237-18.36-18.36-18.36h-17.595c-10.123,0-18.36,8.234-18.36,18.36v10.783c0,0.82-1.236,2.558-2.702,3.079 c-3.063,1.086-6.102,2.359-9.03,3.776c-0.462,0.223-1.114,0.352-1.784,0.352c-1.178,0-1.995-0.379-2.233-0.618l-7.666-7.663 c-3.467-3.467-8.078-5.376-12.983-5.376s-9.514,1.909-12.98,5.376L28.073,40.514c-7.157,7.161-7.157,18.81,0,25.967l7.662,7.662 c0.575,0.575,0.93,2.647,0.266,4.018c-1.423,2.938-2.693,5.976-3.776,9.027c-0.52,1.466-2.265,2.705-3.082,2.705H18.36 C8.238,89.893,0,98.127,0,108.253v17.595c0,10.123,8.235,18.36,18.357,18.36h10.784c0.82,0,2.561,1.236,3.082,2.702 c1.083,3.054,2.353,6.089,3.776,9.024c0.664,1.374,0.312,3.445-0.263,4.021l-7.666,7.666c-3.467,3.467-5.376,8.079-5.376,12.983 c0,4.905,1.909,9.514,5.379,12.984l12.439,12.436c3.467,3.467,8.078,5.376,12.983,5.376s9.514-1.909,12.98-5.376l7.666-7.665 c0.238-0.239,1.059-0.621,2.237-0.621c0.67,0,1.319,0.128,1.784,0.354c2.941,1.423,5.977,2.693,9.024,3.773 c1.469,0.52,2.705,2.264,2.705,3.081v10.784c0,10.125,8.238,18.36,18.36,18.36h17.595c10.123,0,18.36-8.234,18.36-18.36v-10.781 c0-0.82,1.236-2.558,2.702-3.078c3.051-1.083,6.086-2.353,9.024-3.776c0.465-0.227,1.117-0.355,1.787-0.355 c1.178,0,1.995,0.382,2.237,0.621l7.666,7.665c3.467,3.467,8.078,5.376,12.983,5.376s9.514-1.909,12.98-5.376l12.439-12.438 c7.157-7.161,7.157-18.807,0-25.964l-7.662-7.662c-0.576-0.575-0.931-2.65-0.267-4.021 C199.519,152.987,200.788,149.952,201.868,146.904z M152.811,117.044c0,19.719-16.043,35.765-35.762,35.765 c-19.722,0-35.765-16.043-35.765-35.765s16.043-35.765,35.765-35.765C136.767,81.279,152.811,97.323,152.811,117.044z"/>
      </g>
    </g>
  </symbol>
</svg>
