<?xml version="1.0" encoding="utf-8"?>
<svg
  xmlns="http://www.w3.org/2000/svg">
  <symbol id="bolt" viewBox="0 0 17 16">
    <g stroke="none" stroke-width="1">
      <path d="M14.289,0.023 L6.925,0 L2.984,8 L8,8 L3.666,15.916 L14.924,4.941 L10.35,4.941 L14.289,0.023 Z"/>
    </g>
  </symbol>
  <symbol id="house" viewBox="0 0 17 16">
    <g stroke="none" stroke-width="1">
      <g transform="translate(1.000000, 1.000000)">
        <path d="M15.794,7.77 L11.984,3.864 L11.9839997,1.01706251 L11.0159997,1.03906251 L11.016,2.767 L8.502,0.245 C8.224,-0.031 7.776,-0.031 7.499,0.245 L0.206,7.771 C-0.069,8.048 -0.068,8.498 0.206,8.773 C0.482,9.049 0.933,9.049 1.209,8.772 L8,1.982 L14.793,8.772 C14.931,8.91 15.111,8.98 15.293,8.98 C15.474,8.98 15.654,8.912 15.794,8.773 C16.068,8.496 16.068,8.045 15.794,7.77 L15.794,7.77 Z"/>
        <path d="M3.043,8.532 L3.043,14.222 C3.043,14.616 3.26102394,15.0078125 3.61002394,15.0078125 L5.88702394,15.0078125 L5.95099996,11.0147705 L10.0249632,11.0147705 L10.0230128,15.0078125 L12.3260496,15.0078125 C12.6750496,15.0078125 12.958,14.617 12.958,14.222 L12.958,8.531 L8,3.625 L3.043,8.532 L3.043,8.532 Z"/>
      </g>
    </g>
  </symbol>
  <symbol id="factory" viewBox="0 0 16 16">
    <g stroke="none" stroke-width="1">
      <g transform="translate(0.000000, 2.000000)">
        <g>
          <path d="M13,0 L13,7 L9,4 L9,7 L5,4 L5,7 L0,4 L0,13 L15,13 L15,0 L13,0 L13,0 Z M3,10 L1,10 L1,8 L3,8 L3,10 L3,10 Z M7,10 L5,10 L5,8 L7,8 L7,10 L7,10 Z M11,10 L9,10 L9,8 L11,8 L11,10 L11,10 Z"/>
        </g>
      </g>
    </g>
  </symbol>
  <symbol id="city" viewBox="0 0 17 16">
    <g stroke="none" stroke-width="1">
      <g transform="translate(1.000000, 0.000000)">
        <path d="M0,8 L0,16 L3,16 L3,8 L0,8 L0,8 Z M2,15 L0.979,15 L0.979,12.979 L2,12.979 L2,15 L2,15 Z M2.021,12 L0.98,12 L0.98,9.979 L2.021,9.979 L2.021,12 L2.021,12 Z"/>
        <path d="M9,5 L9,3 L8,3 L8,0 L7,0 L7,3 L6,3 L6,5 L4,5 L4,16 L11,16 L11,5 L9,5 L9,5 Z M6,15 L5,15 L5,13 L6,13 L6,15 L6,15 Z M6,12.042 L5,12.042 L5,10 L6,10 L6,12.042 L6,12.042 Z M6,9.042 L5,9.042 L5,7 L6,7 L6,9.042 L6,9.042 Z M8,15 L7,15 L7,13 L8,13 L8,15 L8,15 Z M8,12.042 L7,12.042 L7,10 L8,10 L8,12.042 L8,12.042 Z M8,9.042 L7,9.042 L7,7 L8,7 L8,9.042 L8,9.042 Z M10,15 L9,15 L9,13 L10,13 L10,15 L10,15 Z M10,12.042 L9,12.042 L9,10 L10,10 L10,12.042 L10,12.042 Z M10,9.042 L9,9.042 L9,7 L10,7 L10,9.042 L10,9.042 Z"/>
        <path d="M12,7 L12,16 L16,16 L16,11 L12,7 L12,7 Z M14.031,15.062 L13,15.062 L13,13.968 L14.031,13.968 L14.031,15.062 L14.031,15.062 Z M14.031,13.062 L13,13.062 L13,11.968 L14.031,11.968 L14.031,13.062 L14.031,13.062 Z M14.031,11.062 L13,11.062 L13,9.968 L14.031,9.968 L14.031,11.062 L14.031,11.062 Z"/>
      </g>
    </g>
  </symbol>
  <symbol id="certificate" viewBox="0 0 512 512">
    <g>
      <g>
        <path d="M384,281.6c-43.52,0-76.8,33.28-76.8,76.8c0,33.28,20.48,61.44,51.2,71.68V512l28.16-25.6L409.6,512v-81.92 c30.72-10.24,51.2-38.4,51.2-71.68C460.8,314.88,424.96,281.6,384,281.6z"/>
      </g>
    </g>
    <g>
      <g>
        <path d="M409.6,0h-384C10.24,0,0,12.8,0,25.6v307.2c0,12.8,10.24,25.6,25.6,25.6H256c0-71.68,56.32-128,128-128 c64,0,120.32,48.64,128,110.08c0-2.56,0-263.68,0-263.68L409.6,0z M204.8,307.2h-128c-15.36,0-25.6-10.24-25.6-25.6 c0-15.36,10.24-25.6,25.6-25.6h128c15.36,0,25.6,10.24,25.6,25.6C230.4,296.96,217.6,307.2,204.8,307.2z M358.4,204.8H76.8 c-15.36,0-25.6-10.24-25.6-25.6s10.24-25.6,25.6-25.6h281.6c15.36,0,25.6,10.24,25.6,25.6S371.2,204.8,358.4,204.8z M358.4,102.4 H76.8c-15.36,0-25.6-10.24-25.6-25.6s10.24-25.6,25.6-25.6h281.6c15.36,0,25.6,10.24,25.6,25.6S371.2,102.4,358.4,102.4z"/>
      </g>
    </g>
  </symbol>
  <symbol id="check" viewBox="0 0 474.8 474.801">
    <g>
      <g>
        <path d="M396.283,257.097c-1.14-0.575-2.282-0.862-3.433-0.862c-2.478,0-4.661,0.951-6.563,2.857l-18.274,18.271 c-1.708,1.715-2.566,3.806-2.566,6.283v72.513c0,12.565-4.463,23.314-13.415,32.264c-8.945,8.945-19.701,13.418-32.264,13.418 H82.226c-12.564,0-23.319-4.473-32.264-13.418c-8.947-8.949-13.418-19.698-13.418-32.264V118.622 c0-12.562,4.471-23.316,13.418-32.264c8.945-8.946,19.7-13.418,32.264-13.418H319.77c4.188,0,8.47,0.571,12.847,1.714 c1.143,0.378,1.999,0.571,2.563,0.571c2.478,0,4.668-0.949,6.57-2.852l13.99-13.99c2.282-2.281,3.142-5.043,2.566-8.276 c-0.571-3.046-2.286-5.236-5.141-6.567c-10.272-4.752-21.412-7.139-33.403-7.139H82.226c-22.65,0-42.018,8.042-58.102,24.126 C8.042,76.613,0,95.978,0,118.629v237.543c0,22.647,8.042,42.014,24.125,58.098c16.084,16.088,35.452,24.13,58.102,24.13h237.541 c22.647,0,42.017-8.042,58.101-24.13c16.085-16.084,24.134-35.45,24.134-58.098v-90.797 C402.001,261.381,400.088,258.623,396.283,257.097z"/>
        <path d="M467.95,93.216l-31.409-31.409c-4.568-4.567-9.996-6.851-16.279-6.851c-6.275,0-11.707,2.284-16.271,6.851 L219.265,246.532l-75.084-75.089c-4.569-4.57-9.995-6.851-16.274-6.851c-6.28,0-11.704,2.281-16.274,6.851l-31.405,31.405 c-4.568,4.568-6.854,9.994-6.854,16.277c0,6.28,2.286,11.704,6.854,16.274l122.767,122.767c4.569,4.571,9.995,6.851,16.274,6.851 c6.279,0,11.704-2.279,16.274-6.851l232.404-232.403c4.565-4.567,6.854-9.994,6.854-16.274S472.518,97.783,467.95,93.216z"/>
      </g>
    </g>
  </symbol>
  <symbol id="cogs" viewBox="0 0 593.65 593.65">
    <g>
      <g>
        <path d="M566.104,323.594h-21.531c-5.826,0-12.619-5.272-14.834-11.515c-2.053-5.786-4.465-11.545-7.16-17.121 c-2.871-5.93-1.814-14.418,2.305-18.537l15.326-15.328c10.738-10.737,10.738-28.21,0-38.948l-24.877-24.877 c-5.203-5.202-12.117-8.066-19.475-8.066c-7.355,0-14.271,2.864-19.473,8.066l-15.328,15.328 c-2.461,2.46-6.559,3.929-10.957,3.929c-2.754,0-5.375-0.563-7.574-1.628c-5.578-2.699-11.346-5.113-17.145-7.176 c-6.24-2.215-11.512-9.008-11.512-14.832v-21.533c0-15.184-12.354-27.54-27.541-27.54h-35.189 c-15.188,0-27.541,12.356-27.541,27.54v21.533c0,5.826-5.271,12.62-11.512,14.832c-5.791,2.057-11.557,4.465-17.129,7.158 c-2.163,1.046-4.847,1.622-7.558,1.622c-4.416,0-8.525-1.472-10.992-3.938l-15.303-15.297c-5.202-5.202-12.118-8.066-19.477-8.066 c-7.356,0-14.272,2.864-19.474,8.063l-24.902,24.887c-5.205,5.199-8.069,12.114-8.072,19.471c0,7.356,2.864,14.272,8.066,19.474 l15.328,15.328c4.122,4.122,5.181,12.616,2.311,18.55c-2.69,5.566-5.098,11.322-7.151,17.111 c-2.215,6.239-9.005,11.512-14.832,11.512h-21.53c-15.187,0-27.54,12.356-27.54,27.54v35.19c0,15.184,12.353,27.54,27.54,27.54 h21.53c5.827,0,12.62,5.269,14.835,11.509c2.05,5.773,4.458,11.532,7.157,17.111c2.868,5.93,1.806,14.425-2.319,18.55 l-15.328,15.327c-10.737,10.737-10.737,28.21,0,38.947l24.912,24.915c5.202,5.202,12.118,8.066,19.474,8.066 c7.356,0,14.272-2.864,19.474-8.066l15.328-15.327c2.466-2.467,6.573-3.938,10.985-3.938c2.751,0,5.364,0.56,7.558,1.622 c5.576,2.695,11.333,5.104,17.115,7.157c6.238,2.215,11.512,9.008,11.512,14.835v21.533c0,15.184,12.354,27.539,27.539,27.539 h35.191c15.186,0,27.539-12.355,27.539-27.539v-21.533c0-5.827,5.273-12.62,11.512-14.832c5.793-2.057,11.559-4.465,17.131-7.157 c2.162-1.047,4.846-1.622,7.557-1.622c4.416,0,8.523,1.472,10.99,3.938l15.326,15.327c5.203,5.202,12.115,8.066,19.471,8.066 c7.359,0,14.275-2.867,19.477-8.072l24.889-24.902c10.73-10.74,10.73-28.213-0.004-38.951l-15.314-15.321 c-4.119-4.118-5.176-12.613-2.309-18.547c2.693-5.569,5.098-11.331,7.154-17.12c2.213-6.239,9.004-11.509,14.83-11.509h21.529 c15.188,0,27.541-12.356,27.541-27.54v-35.19C593.643,335.948,581.287,323.594,566.104,323.594z M449.441,368.729 c0,44.502-36.207,80.708-80.709,80.708c-44.5,0-80.707-36.206-80.707-80.708c0-44.501,36.207-80.707,80.707-80.707 C413.234,288.022,449.441,324.225,449.441,368.729z"/>
        <path d="M201.868,146.904c0.521-1.466,2.262-2.702,3.082-2.702h10.784c10.123,0,18.36-8.234,18.36-18.36v-17.595 c0-10.125-8.237-18.36-18.36-18.36h-10.781c-0.82,0-2.561-1.236-3.081-2.702c-1.083-3.051-2.353-6.089-3.776-9.024 c-0.664-1.374-0.312-3.446,0.263-4.021l7.666-7.665c7.157-7.161,7.157-18.807,0-25.964l-12.439-12.439 c-3.467-3.467-8.079-5.376-12.983-5.376c-4.905,0-9.517,1.913-12.984,5.379l-7.662,7.663c-0.239,0.239-1.059,0.621-2.237,0.621 c-0.67,0-1.319-0.128-1.784-0.355c-2.94-1.423-5.976-2.693-9.024-3.773c-1.469-0.52-2.705-2.265-2.705-3.082V18.366 c0-10.126-8.237-18.36-18.36-18.36h-17.595c-10.123,0-18.36,8.234-18.36,18.36v10.783c0,0.82-1.236,2.558-2.702,3.079 c-3.063,1.086-6.102,2.359-9.03,3.776c-0.462,0.223-1.114,0.352-1.784,0.352c-1.178,0-1.995-0.379-2.233-0.618l-7.666-7.663 c-3.467-3.467-8.078-5.376-12.983-5.376s-9.514,1.909-12.98,5.376L28.073,40.514c-7.157,7.161-7.157,18.81,0,25.967l7.662,7.662 c0.575,0.575,0.93,2.647,0.266,4.018c-1.423,2.938-2.693,5.976-3.776,9.027c-0.52,1.466-2.265,2.705-3.082,2.705H18.36 C8.238,89.893,0,98.127,0,108.253v17.595c0,10.123,8.235,18.36,18.357,18.36h10.784c0.82,0,2.561,1.236,3.082,2.702 c1.083,3.054,2.353,6.089,3.776,9.024c0.664,1.374,0.312,3.445-0.263,4.021l-7.666,7.666c-3.467,3.467-5.376,8.079-5.376,12.983 c0,4.905,1.909,9.514,5.379,12.984l12.439,12.436c3.467,3.467,8.078,5.376,12.983,5.376s9.514-1.909,12.98-5.376l7.666-7.665 c0.238-0.239,1.059-0.621,2.237-0.621c0.67,0,1.319,0.128,1.784,0.354c2.941,1.423,5.977,2.693,9.024,3.773 c1.469,0.52,2.705,2.264,2.705,3.081v10.784c0,10.125,8.238,18.36,18.36,18.36h17.595c10.123,0,18.36-8.234,18.36-18.36v-10.781 c0-0.82,1.236-2.558,2.702-3.078c3.051-1.083,6.086-2.353,9.024-3.776c0.465-0.227,1.117-0.355,1.787-0.355 c1.178,0,1.995,0.382,2.237,0.621l7.666,7.665c3.467,3.467,8.078,5.376,12.983,5.376s9.514-1.909,12.98-5.376l12.439-12.438 c7.157-7.161,7.157-18.807,0-25.964l-7.662-7.662c-0.576-0.575-0.931-2.65-0.267-4.021 C199.519,152.987,200.788,149.952,201.868,146.904z M152.811,117.044c0,19.719-16.043,35.765-35.762,35.765 c-19.722,0-35.765-16.043-35.765-35.765s16.043-35.765,35.765-35.765C136.767,81.279,152.811,97.323,152.811,117.044z"/>
      </g>
    </g>
  </symbol>
  <symbol id="standard" viewBox="0 0 330.33 475.71">
    <g style="fill:none;stroke:currentColor;stroke-linecap:round;stroke-width:11px;stroke-linejoin:round;">
      <polyline stroke-linejoin="round" points="268.61 63.55 324.83 63.55 324.83 470.21 5.5 470.21 5.5 63.55 63.17 63.55"/>
      <line stroke-miterlimit="10" x1="118.99" y1="167.26" x2="284.33" y2="167.26"/>
      <line stroke-miterlimit="10" x1="118.99" y1="189.35" x2="256.57" y2="189.35"/>
      <rect stroke-linejoin="round" x="33.17" y="151.73" width="53.15" height="53.15"/>
      <line stroke-miterlimit="10" x1="118.99" y1="253.92" x2="284.33" y2="253.92"/>
      <line stroke-miterlimit="10" x1="118.99" y1="276.02" x2="256.57" y2="276.02"/>
      <rect stroke-linejoin="round" x="33.17" y="238.39" width="53.15" height="53.15"/>
      <line stroke-miterlimit="10" x1="118.99" y1="337.26" x2="284.33" y2="337.26"/>
      <line stroke-miterlimit="10" x1="118.99" y1="359.35" x2="256.57" y2="359.35"/>
      <rect stroke-linejoin="round" x="33.17" y="321.73" width="53.15" height="53.15"/>
      <path stroke-linejoin="round" d="M355.63,105.08a38.13,38.13,0,0,0-76.25,0H215.51v53.15H421V105.08Z" transform="translate(-152.34 -61.45)"/>
      <polyline stroke-linejoin="round" points="209.62 419.19 242.4 447.67 291.51 381.44"/>
    </g>
  </symbol>
  <symbol id="concept" viewBox="0 0 478.16 468.1">
    <g style="fill:none;stroke:currentColor;stroke-linecap:round;stroke-width:11px;">
      <path d="M354.21,424.41V414a124.81,124.81,0,0,0,51.89-31.21h0a125.29,125.29,0,0,0,0-177.19h0a125.28,125.28,0,0,0-177.18,0h0a125.29,125.29,0,0,0,0,177.19h0a124.7,124.7,0,0,0,43,28.14v13.51" transform="translate(-74.76 -58.56)"/>
      <path d="M273.41,497.83A33.05,33.05,0,0,0,305,521.16h16.17a33.06,33.06,0,0,0,31.63-23.45" transform="translate(-74.76 -58.56)"/>
      <path d="M272.51,461.93c-8.24,0-14.92-9.35-14.92-19.37h0c0-10,6.68-18.15,14.92-18.15h80.66c8.24,0,14.92,8.12,14.92,18.15h0c0,10-6.68,18.15-14.92,18.15" transform="translate(-74.76 -58.56)"/>
      <path d="M353.17,461.53c8.24,0,14.92,8.12,14.92,18.15h0c0,10-6.68,18.15-14.92,18.15H272.51c-8.24,0-14.92-8.13-14.92-18.15h0c0-10,6.68-18.15,14.92-18.15h40.33" transform="translate(-74.76 -58.56)"/>
      <line x1="224.58" y1="267" x2="224.58" y2="365.25"/>
      <line x1="253.24" y1="267" x2="253.24" y2="365.25"/>
      <line x1="239.07" y1="5.5" x2="239.07" y2="73.68"/>
      <line x1="136.6" y1="344.78" x2="73.91" y2="407.47"/>
      <line x1="404.24" y1="77.14" x2="357.54" y2="123.84"/>
      <line x1="124.48" y1="127.71" x2="73.91" y2="77.14"/>
      <line x1="404.24" y1="407.47" x2="345.03" y2="348.26"/>
      <line x1="86.89" y1="242.31" x2="5.5" y2="242.31"/>
      <line x1="472.66" y1="242.31" x2="399.11" y2="242.31"/>
    </g>
  </symbol>
  <symbol id="deploy" viewBox="0 0 464.48 462.77">
    <g style="fill:none;stroke:currentColor;stroke-linecap:round;stroke-linejoin:round;stroke-width:11px;">
      <path d="M498.82,325.57,366.62,457.76,230.73,321.87l132.19-132.2c70.31-70.31,174-91,216.77-96.81A15.4,15.4,0,0,1,597,110.35C590.77,152.84,569,255.36,498.82,325.57Z" transform="translate(-138.18 -87.22)"/>
      <circle cx="314.82" cy="151.45" r="38.12"/>
      <line x1="226.86" y1="237.82" x2="126.39" y2="338.29"/>
      <path d="M143.68,280.29l63.51,65.11L295,257.55C259.52,222,191.75,232.21,143.68,280.29Z" transform="translate(-138.18 -87.22)"/>
      <path d="M407.87,544.48,342.76,481l87.85-87.85C466.13,428.64,456,496.41,407.87,544.48Z" transform="translate(-138.18 -87.22)"/>
      <line x1="80.04" y1="384.65" x2="18.7" y2="445.99"/>
      <line x1="143.3" y1="392.98" x2="81.96" y2="454.32"/>
      <line x1="75.59" y1="325.27" x2="14.25" y2="386.61"/>
    </g>
  </symbol>
  <symbol id="smartHome" viewBox="0 0 481.92 369.6">
    <g style="fill:none;stroke:currentColor;stroke-linecap:round;stroke-linejoin:round;stroke-width:11px;">
      <path d="M399.67,135.68c-12.78-10.07-33.68-10.07-46.46,0L202.51,254.45a14.16,14.16,0,0,0-5.4,11.12v194c0,15,14.14,27.13,31.59,27.13H524.18c17.45,0,31.59-12.15,31.59-27.13V265.57a14.16,14.16,0,0,0-5.4-11.12Z" transform="translate(-135.5 -122.63)"/>
      <line x1="107.21" y1="100.14" x2="5.5" y2="179.38"/>
      <line x1="374.71" y1="100.12" x2="476.42" y2="179.36"/>
      <rect x="102.49" y="165.88" width="106.08" height="106.08"/>
      <line x1="155.53" y1="272.26" x2="155.53" y2="166.49"/>
      <line x1="102.64" y1="218.92" x2="208.41" y2="218.92"/>
      <path d="M314.11,165.88h0a59.34,59.34,0,0,1,59.34,59.34V364.1a0,0,0,0,1,0,0H254.77a0,0,0,0,1,0,0V225.22A59.34,59.34,0,0,1,314.11,165.88Z"/>
      <circle fill="currentColor" cx="280.4" cy="270.45" r="2.73"/>
    </g>
  </symbol>
  <symbol id="industry40" viewBox="0 0 486.27 479.3">
    <g style="fill:none;stroke:currentColor;stroke-linecap:round;stroke-width:11px;">
      <polygon points="96.02 473.8 288.15 473.8 288.15 214.87 218.43 230.26 163.02 242.49 96.02 257.28 96.02 473.8"/>
      <rect x="5.5" y="5.5" width="89.82" height="467.74"/>
      <path d="M152.14,542.22" transform="translate(-77.68 -58.83)"/>
      <line x1="70.32" y1="28.17" x2="70.32" y2="449.82"/>
      <polygon points="288.64 473.76 480.77 473.76 480.77 214.83 288.64 257.24 288.64 473.76"/>
      <rect x="213.96" y="363.79" width="38.91" height="38.91"/>
      <rect x="403.09" y="366.86" width="38.91" height="38.91"/>
      <rect x="133.36" y="363.79" width="38.91" height="38.91"/>
      <rect x="324.84" y="366.86" width="38.91" height="38.91"/>
      <rect x="214.91" y="304.05" width="38.91" height="38.91"/>
      <rect x="404.03" y="307.12" width="38.91" height="38.91"/>
      <rect x="134.3" y="304.05" width="38.91" height="38.91"/>
      <rect x="325.78" y="307.12" width="38.91" height="38.91"/>
      <path d="M280,315.51" transform="translate(-77.68 -58.83)"/>
    </g>
  </symbol>
  <symbol id="smartCity" viewBox="0 0 478.66 455.18">
    <g style="fill:none;stroke:currentColor;stroke-linecap:round;stroke-width:11px;">
      <rect stroke-linejoin="round" x="156.56" y="54.32" width="170.13" height="394.1"/>
      <polygon stroke-linejoin="round" points="473.16 449.68 350.49 449.68 350.49 5.5 473.16 78.25 473.16 449.68"/>
      <line x1="378.63" y1="420.62" x2="378.63" y2="61.16"/>
      <line x1="407.65" y1="254.18" x2="444.59" y2="254.18"/>
      <line x1="407.69" y1="295.06" x2="444.63" y2="295.06"/>
      <line x1="408.1" y1="335.94" x2="445.03" y2="335.94"/>
      <line x1="408.14" y1="376.82" x2="445.07" y2="376.82"/>
      <line x1="407.69" y1="165.74" x2="444.63" y2="165.74"/>
      <line x1="407.69" y1="209.77" x2="444.63" y2="209.77"/>
      <line x1="408.02" y1="83.98" x2="444.95" y2="83.98"/>
      <line x1="408.02" y1="124.86" x2="444.95" y2="124.86"/>
      <line x1="407.61" y1="420.04" x2="444.54" y2="420.04"/>
      <line x1="173.56" y1="254.76" x2="298.13" y2="254.76"/>
      <line x1="173.7" y1="295.63" x2="298.27" y2="295.63"/>
      <line x1="175.07" y1="336.51" x2="299.64" y2="336.51"/>
      <line x1="175.21" y1="377.39" x2="299.78" y2="377.39"/>
      <line x1="173.7" y1="166.31" x2="298.27" y2="166.31"/>
      <line x1="173.7" y1="210.34" x2="298.27" y2="210.34"/>
      <line x1="174.8" y1="84.56" x2="299.37" y2="84.56"/>
      <line x1="174.8" y1="125.43" x2="299.37" y2="125.43"/>
      <line x1="173.42" y1="420.62" x2="298" y2="420.62"/>
      <rect stroke-linejoin="round" x="5.5" y="134.51" width="122.67" height="313.92"/>
      <line x1="67.38" y1="134.51" x2="67.38" y2="54.32"/>
      <line x1="29.7" y1="335.94" x2="47.99" y2="335.94"/>
      <line x1="29.72" y1="376.82" x2="48.01" y2="376.82"/>
      <line x1="29.92" y1="417.69" x2="48.21" y2="417.69"/>
      <line x1="29.72" y1="247.49" x2="48.01" y2="247.49"/>
      <line x1="29.72" y1="291.52" x2="48.01" y2="291.52"/>
      <line x1="29.88" y1="165.74" x2="48.17" y2="165.74"/>
      <line x1="29.88" y1="206.62" x2="48.17" y2="206.62"/>
      <line x1="80.71" y1="335.94" x2="98.99" y2="335.94"/>
      <line x1="80.73" y1="376.82" x2="99.01" y2="376.82"/>
      <line x1="80.93" y1="417.69" x2="99.21" y2="417.69"/>
      <path d="M177.25,542.22" transform="translate(-78.01 -83.65)"/>
      <line x1="80.73" y1="247.49" x2="99.01" y2="247.49"/>
      <line x1="80.73" y1="291.52" x2="99.01" y2="291.52"/>
      <line x1="80.89" y1="165.74" x2="99.17" y2="165.74"/>
      <line x1="80.89" y1="206.62" x2="99.17" y2="206.62"/>
    </g>
  </symbol>
  <symbol id="smartGrid" viewBox="0 0 377 482.74">
    <g style="fill:none;stroke:currentColor;stroke-linecap:round;stroke-width:11px;">
      <polygon points="311.99 477.24 186.24 377.24 60.5 477.24 186.24 5.5 311.99 477.24"/>
      <path d="M260.73,538.58" transform="translate(-131.26 -51.2)"/>
      <path d="M280,315.51" transform="translate(-131.26 -51.2)"/>
      <polyline points="234.84 187.81 341.5 187.81 371.5 226.47 5.5 226.47 35.5 187.81 137.65 187.81"/>
      <polyline points="210.05 94.81 286.5 94.81 316.5 133.47 60.5 133.47 90.5 94.81 162.44 94.81"/>
      <line x1="64.07" y1="213.55" x2="64.07" y2="251.39"/>
      <line x1="92.07" y1="213.55" x2="92.07" y2="251.39"/>
      <line x1="282.5" y1="213.55" x2="282.5" y2="251.39"/>
      <line x1="310.5" y1="213.55" x2="310.5" y2="251.39"/>
      <line x1="92.07" y1="120.55" x2="92.07" y2="158.39"/>
      <line x1="282.5" y1="120.55" x2="282.5" y2="158.39"/>
      <rect x="264.47" y="302.21" width="106.08" height="106.08" transform="translate(-289.47 277.37) rotate(-45)"/>
      <rect x="284.81" y="200.24" width="66.08" height="66.08" transform="translate(-203.12 241.89) rotate(-45)"/>
      <rect x="298.36" y="138.44" width="38.3" height="38.3" transform="translate(-149.7 219.47) rotate(-45)"/>
    </g>
  </symbol>
  <symbol id="eye" viewBox="0 0 8 8">
    <g style="fill:currentColor;">
      <path d="M4.031 1c-2.53 0-4.031 3-4.031 3s1.501 3 4.031 3c2.47 0 3.969-3 3.969-3s-1.499-3-3.969-3zm-.031 1c1.1 0 2 .9 2 2s-.9 2-2 2-2-.9-2-2 .9-2 2-2zm0 1c-.55 0-1 .45-1 1s.45 1 1 1 1-.45 1-1c0-.1-.032-.191-.063-.281-.08.16-.237.281-.438.281-.28 0-.5-.22-.5-.5 0-.2.121-.357.281-.438-.09-.03-.181-.063-.281-.063z"></path>
    </g>
  </symbol>

  <symbol id="shield" viewBox="0 0 8 8">
    <g style="fill:currentColor;">
      <path d="M4 0l-.188.094-3.5 1.469-.313.125v.313c0 1.657.666 3.122 1.469 4.188.401.533.828.969 1.25 1.281.422.313.826.531 1.281.531.455 0 .86-.219 1.281-.531.422-.313.849-.749 1.25-1.281.803-1.065 1.469-2.53 1.469-4.188v-.313l-.313-.125-3.5-1.469-.188-.094zm0 1.094v5.906c-.045 0-.328-.069-.656-.313s-.714-.631-1.063-1.094c-.642-.851-1.137-2.025-1.219-3.281l2.938-1.219z"></path>
    </g>
  </symbol>
  
  <symbol id="wrench" viewBox="0 0 8 8">
    <g style="fill:currentColor;">
      <path d="M5.5 0c-1.38 0-2.5 1.12-2.5 2.5 0 .32.078.626.188.906l-2.906 2.875c-.39.39-.39 1.016 0 1.406.2.2.459.313.719.313.26 0 .519-.091.719-.281l2.875-2.875c.28.1.586.156.906.156 1.38 0 2.5-1.12 2.5-2.5 0-.16-.032-.297-.063-.438l-.938.938h-2v-2l.938-.938c-.14-.03-.277-.062-.438-.063zm-4.5 6.5c.28 0 .5.22.5.5s-.22.5-.5.5-.5-.22-.5-.5.22-.5.5-.5z"></path>
    </g>
  </symbol>

  <symbol id="database" viewBox="0 0 12 16">
    <g style="fill:currentColor;">
      <path fill-rule="evenodd" d="M6 15c-3.31 0-6-.9-6-2v-2c0-.17.09-.34.21-.5.67.86 3 1.5 5.79 1.5s5.12-.64 5.79-1.5c.13.16.21.33.21.5v2c0 1.1-2.69 2-6 2zm0-4c-3.31 0-6-.9-6-2V7c0-.11.04-.21.09-.31.03-.06.07-.13.12-.19C.88 7.36 3.21 8 6 8s5.12-.64 5.79-1.5c.05.06.09.13.12.19.05.1.09.21.09.31v2c0 1.1-2.69 2-6 2zm0-4c-3.31 0-6-.9-6-2V3c0-1.1 2.69-2 6-2s6 .9 6 2v2c0 1.1-2.69 2-6 2zm0-5c-2.21 0-4 .45-4 1s1.79 1 4 1 4-.45 4-1-1.79-1-4-1z"></path>
    </g>
  </symbol>

  <symbol id="rocket" viewBox="0 0 16 16">
    <g style="fill:currentColor;">
      <path fill-rule="evenodd" d="M12.17 3.83c-.27-.27-.47-.55-.63-.88-.16-.31-.27-.66-.34-1.02-.58.33-1.16.7-1.73 1.13-.58.44-1.14.94-1.69 1.48-.7.7-1.33 1.81-1.78 2.45H3L0 10h3l2-2c-.34.77-1.02 2.98-1 3l1 1c.02.02 2.23-.64 3-1l-2 2v3l3-3v-3c.64-.45 1.75-1.09 2.45-1.78.55-.55 1.05-1.13 1.47-1.7.44-.58.81-1.16 1.14-1.72-.36-.08-.7-.19-1.03-.34a3.39 3.39 0 0 1-.86-.63M16 0s-.09.38-.3 1.06c-.2.7-.55 1.58-1.06 2.66-.7-.08-1.27-.33-1.66-.72-.39-.39-.63-.94-.7-1.64C13.36.84 14.23.48 14.92.28 15.62.08 16 0 16 0"></path>
    </g>
  </symbol>
  <symbol id="connect" viewBox="0 0 17 17">
    <g stroke="none" stroke-width="1" fill="currentColor" fill-rule="evenodd">
      <path d="M14.5,13.043 C14.242,13.043 14.002,13.112 13.79,13.225 L10.531,9.954 C10.738,9.664 10.885,9.331 10.953,8.968 L12.086,8.968 C12.287,9.544 12.84,9.96 13.5,9.96 C14.329,9.96 15,9.308 15,8.502 C15,7.696 14.329,7.044 13.5,7.044 C12.826,7.044 12.264,7.479 12.074,8.073 L10.955,8.073 C10.893,7.725 10.764,7.401 10.573,7.119 L13.863,3.817 C14.057,3.906 14.271,3.96 14.5,3.96 C15.329,3.96 16,3.308 16,2.502 C16,1.696 15.329,1.044 14.5,1.044 C13.672,1.044 13.002,1.696 13.002,2.502 C13.002,2.763 13.077,3.005 13.201,3.217 L9.945,6.486 C9.652,6.279 9.316,6.133 8.949,6.067 L8.949,4.886 C9.556,4.7 10,4.155 10,3.502 C10,2.696 9.329,2.044 8.5,2.044 C7.672,2.044 7.002,2.696 7.002,3.502 C7.002,4.157 7.447,4.705 8.06,4.889 L8.06,6.066 C7.696,6.13 7.36,6.271 7.069,6.474 L3.809,3.203 C3.927,2.994 4,2.758 4,2.503 C4,1.697 3.329,1.045 2.5,1.045 C1.672,1.045 1.002,1.697 1.002,2.503 C1.002,3.309 1.672,3.961 2.5,3.961 C2.734,3.961 2.955,3.904 3.152,3.811 L6.437,7.108 C6.241,7.393 6.107,7.721 6.044,8.075 L4.926,8.075 C4.737,7.48 4.173,7.046 3.499,7.046 C2.671,7.046 2.001,7.698 2.001,8.504 C2.001,9.31 2.671,9.962 3.499,9.962 C4.159,9.962 4.714,9.546 4.913,8.97 L6.046,8.97 C6.114,9.339 6.267,9.677 6.48,9.97 L3.226,13.236 C3.01,13.119 2.765,13.047 2.499,13.047 C1.671,13.047 1.001,13.699 1.001,14.505 C1.001,15.311 1.671,15.963 2.499,15.963 C3.328,15.963 3.999,15.311 3.999,14.505 C3.999,14.279 3.942,14.068 3.849,13.879 L7.124,10.59 C7.401,10.774 7.718,10.899 8.059,10.959 L8.059,12.118 C7.447,12.302 7.001,12.849 7.001,13.505 C7.001,14.311 7.671,14.963 8.499,14.963 C9.328,14.963 9.999,14.311 9.999,13.505 C9.999,12.853 9.556,12.307 8.948,12.121 L8.948,10.958 C9.292,10.896 9.611,10.768 9.89,10.581 L13.159,13.862 C13.06,14.056 13.001,14.273 13.001,14.505 C13.001,15.311 13.671,15.963 14.499,15.963 C15.328,15.963 15.999,15.311 15.999,14.505 C15.999,13.699 15.329,13.043 14.5,13.043 L14.5,13.043 Z"></path>
    </g>
  </symbol>
  <symbol id="pick" viewBox="0 0 17 17">
    <g stroke="none" stroke-width="1" fill="none" fill-rule="evenodd">
      <g transform="translate(0.000000, 1.000000)" fill="currentColor">
        <path d="M9.168,4.921 C9.177,4.927 11.045,6.81 11.053,6.817 L12.367,5.497 C16.222,9.901 14.833,12.556 14.982,12.405 C16.883,10.506 15.872,6.415 12.726,3.269 C9.58,0.123 5.488,-0.888 3.591,1.011 C3.443,1.157 6.091,-0.26 10.499,3.604 L9.168,4.921 L9.168,4.921 Z"></path>
        <rect transform="translate(14.140900, 1.310900) rotate(44.935177) translate(-14.140900, -1.310900) " x="13.6409045" y="0.810904475" width="1.24198888" height="1.33798802"></rect>
        <path d="M8.873,6.166 L0.289,14.752 C0.026,15.014 0.022,15.438 0.28,15.695 C0.538,15.952 0.961,15.949 1.224,15.685 L9.808,7.101 L8.873,6.166 L8.873,6.166 Z"></path>
      </g>
    </g>
  </symbol>
</svg>
